# xmcd
#
# Track frame offsets: 
#        150
#        67572
#        78020
#        147400
#
# Disc length: 2050 seconds
#
# Revision: 1
# Processed by: cddbd v1.5.2PL0 Copyright (c) Steve Scherf et al.
# Submitted via: ExactAudioCopy v1.1
#
DISCID=25080004
DTITLE=Chrome - Mission Of The Entranced
DYEAR=1990
DGENRE=Avantgarde
TTITLE0=We Are Not Haunted (Part 1)
TTITLE1=We Are Not Haunted (Part 2)
TTITLE2=Mission Of The Entranced (Part 1)
TTITLE3=Mission Of The Entranced (Part 2)
EXTD=
EXTT0=
EXTT1=
EXTT2=
EXTT3=
PLAYORDER=
